<svg width="40" height="60" viewBox="0 0 101 152" fill="none" xmlns="http://www.w3.org/2000/svg">
<path d="M48.0159 147.319L12.4882 97.3168C10.6064 94.6683 12.5 91 15.7489 91H85.4245C88.6396 91 90.5409 94.6008 88.7277 97.2558L54.5798 147.258C53.0094 149.558 49.6287 149.589 48.0159 147.319Z" fill="#34A100" stroke="#2B2B2B"/>
<path d="M100.5 50.5V90C100.5 93.0376 98.0376 95.5 95 95.5H6C2.96243 95.5 0.5 93.0376 0.5 90V50.5C0.5 22.8858 22.8858 0.5 50.5 0.5C78.1142 0.5 100.5 22.8858 100.5 50.5Z" fill="#34A100" stroke="#131313"/>
<path d="M10 50C10 28.4609 27.4609 11 49 11H52C73.5391 11 91 28.4609 91 50V50C91 71.5391 73.5391 89 52 89H49C27.4609 89 10 71.5391 10 50V50Z" fill="#2A2D29"/>
<rect x="22" y="64.484" width="4.99952" height="25.8915" transform="rotate(-51.5527 22 64.484)" fill="#34A100"/>
<rect x="76.5142" y="29" width="4.99952" height="61.0747" transform="rotate(38.3202 76.5142 29)" fill="#34A100"/>
</svg>
